<svg width="20" height="23" viewBox="0 0 20 23" fill="none" xmlns="http://www.w3.org/2000/svg">
<path d="M4.375 0C4.54076 0 4.69973 0.0757252 4.81694 0.210517C4.93415 0.345309 5 0.528126 5 0.71875V1.4375H15V0.71875C15 0.528126 15.0658 0.345309 15.1831 0.210517C15.3003 0.0757252 15.4592 0 15.625 0C15.7908 0 15.9497 0.0757252 16.0669 0.210517C16.1842 0.345309 16.25 0.528126 16.25 0.71875V1.4375H17.5C18.163 1.4375 18.7989 1.7404 19.2678 2.27957C19.7366 2.81874 20 3.55 20 4.3125V20.125C20 20.8875 19.7366 21.6188 19.2678 22.1579C18.7989 22.6971 18.163 23 17.5 23H2.5C1.83696 23 1.20107 22.6971 0.732233 22.1579C0.263392 21.6188 0 20.8875 0 20.125V4.3125C0 3.55 0.263392 2.81874 0.732233 2.27957C1.20107 1.7404 1.83696 1.4375 2.5 1.4375H3.75V0.71875C3.75 0.528126 3.81585 0.345309 3.93306 0.210517C4.05027 0.0757252 4.20924 0 4.375 0ZM16.8175 4.3125H3.18125C2.80625 4.3125 2.5 4.6345 2.5 5.03125V6.46875C2.5 6.8655 2.805 7.1875 3.18125 7.1875H16.8188C17.1938 7.1875 17.5 6.8655 17.5 6.46875V5.03125C17.5 4.6345 17.195 4.3125 16.8175 4.3125ZM13.5675 12.7276C13.6849 12.5927 13.7508 12.4096 13.7508 12.2188C13.7508 12.0279 13.6849 11.8448 13.5675 11.7099C13.4501 11.5749 13.291 11.4991 13.125 11.4991C12.959 11.4991 12.7999 11.5749 12.6825 11.7099L9.375 15.5149L7.9425 13.8661C7.88439 13.7993 7.8154 13.7463 7.73948 13.7101C7.66356 13.674 7.58218 13.6553 7.5 13.6553C7.41782 13.6553 7.33644 13.674 7.26052 13.7101C7.1846 13.7463 7.11561 13.7993 7.0575 13.8661C6.99939 13.933 6.95329 14.0123 6.92185 14.0996C6.8904 14.1869 6.87421 14.2805 6.87421 14.375C6.87421 14.4695 6.8904 14.5631 6.92185 14.6504C6.95329 14.7377 6.99939 14.817 7.0575 14.8839L8.9325 17.0401C8.99056 17.1071 9.05953 17.1602 9.13546 17.1964C9.21139 17.2326 9.29279 17.2513 9.375 17.2513C9.45721 17.2513 9.53861 17.2326 9.61454 17.1964C9.69047 17.1602 9.75944 17.1071 9.8175 17.0401L13.5675 12.7276Z" fill="black"/>
</svg>
