<svg width="25" height="28" viewBox="0 0 25 28" fill="none" xmlns="http://www.w3.org/2000/svg">
<path d="M17.1875 11.375C17.1875 11.1429 17.2698 10.9204 17.4163 10.7563C17.5628 10.5922 17.7615 10.5 17.9688 10.5H19.5312C19.7385 10.5 19.9372 10.5922 20.0837 10.7563C20.2302 10.9204 20.3125 11.1429 20.3125 11.375V13.125C20.3125 13.3571 20.2302 13.5796 20.0837 13.7437C19.9372 13.9078 19.7385 14 19.5312 14H17.9688C17.7615 14 17.5628 13.9078 17.4163 13.7437C17.2698 13.5796 17.1875 13.3571 17.1875 13.125V11.375ZM12.5 11.375C12.5 11.1429 12.5823 10.9204 12.7288 10.7563C12.8753 10.5922 13.074 10.5 13.2812 10.5H14.8438C15.051 10.5 15.2497 10.5922 15.3962 10.7563C15.5427 10.9204 15.625 11.1429 15.625 11.375V13.125C15.625 13.3571 15.5427 13.5796 15.3962 13.7437C15.2497 13.9078 15.051 14 14.8438 14H13.2812C13.074 14 12.8753 13.9078 12.7288 13.7437C12.5823 13.5796 12.5 13.3571 12.5 13.125V11.375ZM4.6875 16.625C4.6875 16.3929 4.76981 16.1704 4.91632 16.0063C5.06284 15.8422 5.26155 15.75 5.46875 15.75H7.03125C7.23845 15.75 7.43716 15.8422 7.58368 16.0063C7.73019 16.1704 7.8125 16.3929 7.8125 16.625V18.375C7.8125 18.6071 7.73019 18.8296 7.58368 18.9937C7.43716 19.1578 7.23845 19.25 7.03125 19.25H5.46875C5.26155 19.25 5.06284 19.1578 4.91632 18.9937C4.76981 18.8296 4.6875 18.6071 4.6875 18.375V16.625ZM9.375 16.625C9.375 16.3929 9.45731 16.1704 9.60382 16.0063C9.75034 15.8422 9.94905 15.75 10.1562 15.75H11.7188C11.926 15.75 12.1247 15.8422 12.2712 16.0063C12.4177 16.1704 12.5 16.3929 12.5 16.625V18.375C12.5 18.6071 12.4177 18.8296 12.2712 18.9937C12.1247 19.1578 11.926 19.25 11.7188 19.25H10.1562C9.94905 19.25 9.75034 19.1578 9.60382 18.9937C9.45731 18.8296 9.375 18.6071 9.375 18.375V16.625Z" fill="black"/>
<path d="M5.46875 0C5.67595 0 5.87466 0.0921873 6.02118 0.256282C6.16769 0.420376 6.25 0.642936 6.25 0.875V1.75H18.75V0.875C18.75 0.642936 18.8323 0.420376 18.9788 0.256282C19.1253 0.0921873 19.324 0 19.5312 0C19.7385 0 19.9372 0.0921873 20.0837 0.256282C20.2302 0.420376 20.3125 0.642936 20.3125 0.875V1.75H21.875C22.7038 1.75 23.4987 2.11875 24.0847 2.77513C24.6708 3.4315 25 4.32174 25 5.25V24.5C25 25.4283 24.6708 26.3185 24.0847 26.9749C23.4987 27.6313 22.7038 28 21.875 28H3.125C2.2962 28 1.50134 27.6313 0.915291 26.9749C0.32924 26.3185 0 25.4283 0 24.5V5.25C0 4.32174 0.32924 3.4315 0.915291 2.77513C1.50134 2.11875 2.2962 1.75 3.125 1.75H4.6875V0.875C4.6875 0.642936 4.76981 0.420376 4.91632 0.256282C5.06284 0.0921873 5.26155 0 5.46875 0V0ZM1.5625 7V24.5C1.5625 24.9641 1.72712 25.4092 2.02015 25.7374C2.31317 26.0656 2.7106 26.25 3.125 26.25H21.875C22.2894 26.25 22.6868 26.0656 22.9799 25.7374C23.2729 25.4092 23.4375 24.9641 23.4375 24.5V7H1.5625Z" fill="black"/>
</svg>
