<svg width="16" height="16" viewBox="0 0 16 16" fill="none" xmlns="http://www.w3.org/2000/svg">
<g clip-path="url(#clip0)">
<path fill-rule="evenodd" clip-rule="evenodd" d="M1.885 0.510994C2.05997 0.336283 2.27008 0.200753 2.50139 0.113384C2.73271 0.026016 2.97995 -0.011195 3.22674 0.00421719C3.47352 0.0196294 3.71421 0.0873129 3.93286 0.202782C4.15151 0.318252 4.34312 0.47887 4.495 0.673994L6.29 2.97999C6.619 3.40299 6.735 3.95399 6.605 4.47399L6.058 6.66399C6.02972 6.77742 6.03124 6.89624 6.06243 7.0089C6.09362 7.12157 6.15341 7.22426 6.236 7.30699L8.693 9.76399C8.77583 9.84675 8.87869 9.90664 8.99155 9.93783C9.10441 9.96902 9.22342 9.97046 9.337 9.94199L11.526 9.39499C11.7826 9.33083 12.0505 9.32585 12.3093 9.38042C12.5681 9.43499 12.8111 9.54769 13.02 9.70999L15.326 11.504C16.155 12.149 16.231 13.374 15.489 14.115L14.455 15.149C13.715 15.889 12.609 16.214 11.578 15.851C8.93918 14.9225 6.54327 13.4118 4.568 11.431C2.58729 9.45601 1.07661 7.06045 0.147998 4.42199C-0.214002 3.39199 0.110998 2.28499 0.850998 1.54499L1.885 0.510994Z" fill="black"/>
</g>
<defs>
<clipPath id="clip0">
<rect width="16" height="16" fill="white"/>
</clipPath>
</defs>
</svg>
