<svg width="103" height="19" viewBox="0 0 103 19" fill="none" xmlns="http://www.w3.org/2000/svg">
<path d="M7.766 7.52C8.498 7.676 9.086 8.042 9.53 8.618C9.974 9.182 10.196 9.83 10.196 10.562C10.196 11.618 9.824 12.458 9.08 13.082C8.348 13.694 7.322 14 6.002 14H0.116V1.364H5.804C7.088 1.364 8.09 1.658 8.81 2.246C9.542 2.834 9.908 3.632 9.908 4.64C9.908 5.384 9.71 6.002 9.314 6.494C8.93 6.986 8.414 7.328 7.766 7.52ZM3.194 6.476H5.21C5.714 6.476 6.098 6.368 6.362 6.152C6.638 5.924 6.776 5.594 6.776 5.162C6.776 4.73 6.638 4.4 6.362 4.172C6.098 3.944 5.714 3.83 5.21 3.83H3.194V6.476ZM5.462 11.516C5.978 11.516 6.374 11.402 6.65 11.174C6.938 10.934 7.082 10.592 7.082 10.148C7.082 9.704 6.932 9.356 6.632 9.104C6.344 8.852 5.942 8.726 5.426 8.726H3.194V11.516H5.462ZM21.8992 3.956V14H18.8212V12.632C18.5092 13.076 18.0832 13.436 17.5432 13.712C17.0152 13.976 16.4272 14.108 15.7792 14.108C15.0112 14.108 14.3332 13.94 13.7452 13.604C13.1572 13.256 12.7012 12.758 12.3772 12.11C12.0532 11.462 11.8912 10.7 11.8912 9.824V3.956H14.9512V9.41C14.9512 10.082 15.1252 10.604 15.4732 10.976C15.8212 11.348 16.2892 11.534 16.8772 11.534C17.4772 11.534 17.9512 11.348 18.2992 10.976C18.6472 10.604 18.8212 10.082 18.8212 9.41V3.956H21.8992ZM28.1961 14.144C27.3201 14.144 26.5401 13.994 25.8561 13.694C25.1721 13.394 24.6321 12.986 24.2361 12.47C23.8401 11.942 23.6181 11.354 23.5701 10.706H26.6121C26.6481 11.054 26.8101 11.336 27.0981 11.552C27.3861 11.768 27.7401 11.876 28.1601 11.876C28.5441 11.876 28.8381 11.804 29.0421 11.66C29.2581 11.504 29.3661 11.306 29.3661 11.066C29.3661 10.778 29.2161 10.568 28.9161 10.436C28.6161 10.292 28.1301 10.136 27.4581 9.968C26.7381 9.8 26.1381 9.626 25.6581 9.446C25.1781 9.254 24.7641 8.96 24.4161 8.564C24.0681 8.156 23.8941 7.61 23.8941 6.926C23.8941 6.35 24.0501 5.828 24.3621 5.36C24.6861 4.88 25.1541 4.502 25.7661 4.226C26.3901 3.95 27.1281 3.812 27.9801 3.812C29.2401 3.812 30.2301 4.124 30.9501 4.748C31.6821 5.372 32.1021 6.2 32.2101 7.232H29.3661C29.3181 6.884 29.1621 6.608 28.8981 6.404C28.6461 6.2 28.3101 6.098 27.8901 6.098C27.5301 6.098 27.2541 6.17 27.0621 6.314C26.8701 6.446 26.7741 6.632 26.7741 6.872C26.7741 7.16 26.9241 7.376 27.2241 7.52C27.5361 7.664 28.0161 7.808 28.6641 7.952C29.4081 8.144 30.0141 8.336 30.4821 8.528C30.9501 8.708 31.3581 9.008 31.7061 9.428C32.0661 9.836 32.2521 10.388 32.2641 11.084C32.2641 11.672 32.0961 12.2 31.7601 12.668C31.4361 13.124 30.9621 13.484 30.3381 13.748C29.7261 14.012 29.0121 14.144 28.1961 14.144ZM33.5353 8.978C33.5353 7.934 33.7453 7.022 34.1653 6.242C34.5973 5.462 35.1913 4.862 35.9473 4.442C36.7153 4.022 37.5913 3.812 38.5753 3.812C39.8353 3.812 40.8853 4.142 41.7253 4.802C42.5773 5.462 43.1353 6.392 43.3993 7.592H40.1233C39.8473 6.824 39.3133 6.44 38.5213 6.44C37.9573 6.44 37.5073 6.662 37.1713 7.106C36.8353 7.538 36.6673 8.162 36.6673 8.978C36.6673 9.794 36.8353 10.424 37.1713 10.868C37.5073 11.3 37.9573 11.516 38.5213 11.516C39.3133 11.516 39.8473 11.132 40.1233 10.364H43.3993C43.1353 11.54 42.5773 12.464 41.7253 13.136C40.8733 13.808 39.8233 14.144 38.5753 14.144C37.5913 14.144 36.7153 13.934 35.9473 13.514C35.1913 13.094 34.5973 12.494 34.1653 11.714C33.7453 10.934 33.5353 10.022 33.5353 8.978ZM44.4337 8.96C44.4337 7.928 44.6257 7.022 45.0097 6.242C45.4057 5.462 45.9397 4.862 46.6117 4.442C47.2837 4.022 48.0337 3.812 48.8617 3.812C49.5697 3.812 50.1877 3.956 50.7157 4.244C51.2557 4.532 51.6697 4.91 51.9577 5.378V3.956H55.0357V14H51.9577V12.578C51.6577 13.046 51.2377 13.424 50.6977 13.712C50.1697 14 49.5517 14.144 48.8437 14.144C48.0277 14.144 47.2837 13.934 46.6117 13.514C45.9397 13.082 45.4057 12.476 45.0097 11.696C44.6257 10.904 44.4337 9.992 44.4337 8.96ZM51.9577 8.978C51.9577 8.21 51.7417 7.604 51.3097 7.16C50.8897 6.716 50.3737 6.494 49.7617 6.494C49.1497 6.494 48.6277 6.716 48.1957 7.16C47.7757 7.592 47.5657 8.192 47.5657 8.96C47.5657 9.728 47.7757 10.34 48.1957 10.796C48.6277 11.24 49.1497 11.462 49.7617 11.462C50.3737 11.462 50.8897 11.24 51.3097 10.796C51.7417 10.352 51.9577 9.746 51.9577 8.978ZM60.3405 5.378C60.6405 4.91 61.0545 4.532 61.5825 4.244C62.1105 3.956 62.7285 3.812 63.4365 3.812C64.2645 3.812 65.0145 4.022 65.6865 4.442C66.3585 4.862 66.8865 5.462 67.2705 6.242C67.6665 7.022 67.8645 7.928 67.8645 8.96C67.8645 9.992 67.6665 10.904 67.2705 11.696C66.8865 12.476 66.3585 13.082 65.6865 13.514C65.0145 13.934 64.2645 14.144 63.4365 14.144C62.7405 14.144 62.1225 14 61.5825 13.712C61.0545 13.424 60.6405 13.052 60.3405 12.596V18.788H57.2625V3.956H60.3405V5.378ZM64.7325 8.96C64.7325 8.192 64.5165 7.592 64.0845 7.16C63.6645 6.716 63.1425 6.494 62.5185 6.494C61.9065 6.494 61.3845 6.716 60.9525 7.16C60.5325 7.604 60.3225 8.21 60.3225 8.978C60.3225 9.746 60.5325 10.352 60.9525 10.796C61.3845 11.24 61.9065 11.462 62.5185 11.462C63.1305 11.462 63.6525 11.24 64.0845 10.796C64.5165 10.34 64.7325 9.728 64.7325 8.96ZM68.8673 8.96C68.8673 7.928 69.0593 7.022 69.4433 6.242C69.8393 5.462 70.3733 4.862 71.0453 4.442C71.7173 4.022 72.4673 3.812 73.2953 3.812C74.0033 3.812 74.6213 3.956 75.1493 4.244C75.6893 4.532 76.1033 4.91 76.3913 5.378V3.956H79.4693V14H76.3913V12.578C76.0913 13.046 75.6713 13.424 75.1313 13.712C74.6033 14 73.9853 14.144 73.2773 14.144C72.4613 14.144 71.7173 13.934 71.0453 13.514C70.3733 13.082 69.8393 12.476 69.4433 11.696C69.0593 10.904 68.8673 9.992 68.8673 8.96ZM76.3913 8.978C76.3913 8.21 76.1753 7.604 75.7433 7.16C75.3233 6.716 74.8073 6.494 74.1953 6.494C73.5833 6.494 73.0613 6.716 72.6293 7.16C72.2093 7.592 71.9993 8.192 71.9993 8.96C71.9993 9.728 72.2093 10.34 72.6293 10.796C73.0613 11.24 73.5833 11.462 74.1953 11.462C74.8073 11.462 75.3233 11.24 75.7433 10.796C76.1753 10.352 76.3913 9.746 76.3913 8.978ZM81.0841 8.978C81.0841 7.934 81.2941 7.022 81.7141 6.242C82.1461 5.462 82.7401 4.862 83.4961 4.442C84.2641 4.022 85.1401 3.812 86.1241 3.812C87.3841 3.812 88.4341 4.142 89.2741 4.802C90.1261 5.462 90.6841 6.392 90.9481 7.592H87.6721C87.3961 6.824 86.8621 6.44 86.0701 6.44C85.5061 6.44 85.0561 6.662 84.7201 7.106C84.3841 7.538 84.2161 8.162 84.2161 8.978C84.2161 9.794 84.3841 10.424 84.7201 10.868C85.0561 11.3 85.5061 11.516 86.0701 11.516C86.8621 11.516 87.3961 11.132 87.6721 10.364H90.9481C90.6841 11.54 90.1261 12.464 89.2741 13.136C88.4221 13.808 87.3721 14.144 86.1241 14.144C85.1401 14.144 84.2641 13.934 83.4961 13.514C82.7401 13.094 82.1461 12.494 81.7141 11.714C81.2941 10.934 81.0841 10.022 81.0841 8.978ZM98.7325 14L95.6725 9.788V14H92.5945V0.68H95.6725V8.042L98.7145 3.956H102.513L98.3365 8.996L102.549 14H98.7325Z" fill="#FF5F00"/>
</svg>
